/* XPM */
static char * unlock_picture_xpm[] = {
"64 64 133 2",
"  	c None",
". 	c #FF0000",
"+ 	c #00FF00",
"@ 	c #01FF00",
"# 	c #0DFF01",
"$ 	c #19FF03",
"% 	c #21FE04",
"& 	c #25FE04",
"* 	c #26FE04",
"= 	c #0CFE01",
"- 	c #1DFE03",
"; 	c #34FE06",
"> 	c #49FE09",
", 	c #56FE0A",
"' 	c #5EFD0B",
") 	c #5FFD0B",
"! 	c #1FFE04",
"~ 	c #55FE0A",
"{ 	c #70FD0E",
"] 	c #80FE10",
"^ 	c #89FD11",
"/ 	c #90FD12",
"( 	c #9CFD13",
"_ 	c #A9FD15",
": 	c #B0FD16",
"< 	c #B4FC16",
"[ 	c #B5FC16",
"} 	c #B2FC16",
"| 	c #CDFC19",
"1 	c #FFFC20",
"2 	c #FFFC21",
"3 	c #E5FC1C",
"4 	c #FD0200",
"5 	c #4DFE0A",
"6 	c #B2FD16",
"7 	c #FFFC22",
"8 	c #FFFD21",
"9 	c #FEFC20",
"0 	c #FFFF1C",
"a 	c #FFFF19",
"b 	c #FEFB20",
"c 	c #FFFD1F",
"d 	c #F7F427",
"e 	c #F1EE2C",
"f 	c #F6F327",
"g 	c #FDFA21",
"h 	c #9A9878",
"i 	c #787696",
"j 	c #B1AF64",
"k 	c #0000FF",
"l 	c #716F9C",
"m 	c #6967A3",
"n 	c #F0ED2D",
"o 	c #FFFF18",
"p 	c #71709C",
"q 	c #F2EF2B",
"r 	c #FF0701",
"s 	c #FF0D01",
"t 	c #72709B",
"u 	c #FF0200",
"v 	c #FF1702",
"w 	c #FF2C05",
"x 	c #FFFF23",
"y 	c #6A69A2",
"z 	c #E5E236",
"A 	c #FFFD1E",
"B 	c #FFFE1F",
"C 	c #FF0100",
"D 	c #FF0E02",
"E 	c #FF3D07",
"F 	c #FF770E",
"G 	c #FFA815",
"H 	c #FFFF21",
"I 	c #4645C2",
"J 	c #4B4ABD",
"K 	c #B5B360",
"L 	c #E6E335",
"M 	c #FF0A02",
"N 	c #FF1F04",
"O 	c #FF690D",
"P 	c #FFC318",
"Q 	c #FFEA1D",
"R 	c #FFFF20",
"S 	c #FFFF12",
"T 	c #787796",
"U 	c #2423E0",
"V 	c #C3C054",
"W 	c #FF1D03",
"X 	c #FF3306",
"Y 	c #FF8510",
"Z 	c #FFE61D",
"` 	c #FFFD20",
" .	c #FFFF13",
"..	c #807F8F",
"+.	c #0505FB",
"@.	c #3534D0",
"#.	c #7D7B92",
"$.	c #FFFF0A",
"%.	c #FF3005",
"&.	c #FF4608",
"*.	c #FF9813",
"=.	c #FFF61F",
"-.	c #807E90",
";.	c #FF520A",
">.	c #FFA214",
",.	c #807E8F",
"'.	c #FF5A0B",
").	c #FFA615",
"!.	c #FF4809",
"~.	c #FF5C0B",
"{.	c #FF4808",
"].	c #FFA715",
"^.	c #FF4909",
"/.	c #FF5D0B",
"(.	c #84828C",
"_.	c #FF3F08",
":.	c #FF550A",
"<.	c #FFFF22",
"[.	c #FFFF0D",
"}.	c #4D4CBC",
"|.	c #FF3206",
"1.	c #FF9D14",
"2.	c #FF1C03",
"3.	c #FF3006",
"4.	c #FF780F",
"5.	c #FFD01A",
"6.	c #FFF01E",
"7.	c #0101FE",
"8.	c #FF0A01",
"9.	c #FF590B",
"0.	c #FFDB1C",
"a.	c #0404FB",
"b.	c #FFFF00",
"                . . . .       + + + + + + + + + + + + + + + + + + + + + + + + + + + + + + + + + + + + + + + + + +               ",
"                . . . .       + + + + + + + + + + + + + + + + + + + + + + + + + + + + + + + + + + + + + + + + + +               ",
"                . . . .       + + + + + + + + + + + + + + + + + + + @ + + + + + + + # $ % & * & & & & & & & * &                 ",
"                . . . .       + + + + + + + + + + + + + + + + + + + + + + + + + = - ; > , ' ) ' ' ' ' ' ' ' ' ' '               ",
"                . . . .       + + + + + + + + + + + + + + + + + @ + + + ! ~ { ] ^ / ( _ : < [ < < < < < < < } < | 1 2 1         ",
"                . . . . .       + + + + + + + + + + + + + + + + + + + + ~ < 3 1 2 1 1 1 1 1 1 1 1 1 1 1 1 1 1 1 1 1 1 1 1       ",
"                . . . . 4         + + + + + + + + + + + + + + +   + 5 ] 6 3 1 7 7 7 7 2 2 2 2 2 2 2 2 2 2 8 2 2 2 1 9 1 1       ",
"                . . . . .                                           1 1 1 1 1 1 1 1 1 1 1 1 1 1 1 1 1 1 1 1 1 1 1 1 1 1 1       ",
"                . . . . .                                             7 2 2 1 1 1 1 1 1 1 1 1 1 1 1 1 1 0 a 0 1 b 1 1 1 1       ",
"                . . . . .                                           1 1 1 1 1 1 1 1 1 1 1 1 1 1 1 1 c 1 d e f g 1 1 1 1 1       ",
"                . . . . .                                           1 1 1 1 1 1 1 1   1 1 1 1 1 1 1   1 h i j d 0 1 1 1 1       ",
"                . . . . .                                           1 1 1 1 1 1 1                       k k l e a 1 c 1 1       ",
"                . . . . .                                           1 1 1 1 1 1                           k m n o 1 c 1 1       ",
"                . . . . .                                           1 1 1 1 1 1 1                       k k l e a 1 c 1 1       ",
"                . . . . .                                           1 1 1 1 1 1 1                       k k l e a 1 c 1 1       ",
"                . . . . .                                           1 1 1 1 1 1 1                       k k l e a 1 c 1 1       ",
"                . . . . .                                           1 1 1 1 1 1 1                       k k l e a 1 c 1 1       ",
"                . . . . .                                           1 1 1 1 1 1 1                       k k l e a 1 c 1 1       ",
"                . . . . .                                           1 1 1 1 1 1 1                       k k p q o 1 c 1 1       ",
"                . . . . .                                           1 1 1 1 1 1 1                       k k l e a 1 c 1 1       ",
"                . . r s       1                                       1 1 1 1 1                           k t q o 1 c 1 1       ",
"                . u v w     x 1 1                                   1 1 1 1 1 1 1                       k k y z A 1 B 1 1       ",
"                C D E F G 1 H 1 1 1   1 1 1 1 1 1 1 1 1 1 1 1 1   1 1 1 1 1 1 1 1 1   1 1 1 1 1 1 1   1 I k J K L 1 0 1 1       ",
"                M N O P Q 1 R 1 1 1 1 1 1 1 1 1 1 1 1 1 1 1 1 1 1 1 1 1 1 1 1 1 1 1 1 1 1 1 1 1 1 1 S 1 T k U i V 1 a 1 1       ",
"                W X Y Z 1 1 ` 1 1 1 1 1 1 1 1 1 1 1 1 1 1 1 1 1 1 1 1 1 1 1 1 1 1 1 1 1 1 1 1 1 1 1  .1 ..k +.@.#.1 $.1         ",
"                %.&.*.=.H 1 1 1 1 1 1 1 1 1 1 1 1 1 1 1 1 1 1 1 1 1 1 1 1 1 1 1 1 1 1 1 1 1 1 1 1 1 S 1 -.k k k k               ",
"                E ;.>.1 H 1 1 1 1 1 1 1 1 1 1 1 1 1 1 1 1 1 1 1 1 1 1 1 1 1 1 1 1 1 1 1 1 1 1 1 1 1 S 1 ,.k k k                 ",
"                &.'.).1 H 1 1 1 1 1 1 1 1 1 1 1 1 1 1 1 1 1 1 1 1 1 1 1 1 1 1 1 1 1 1 1 1 1 1 1 1 1 S 1 -.k k k k               ",
"                !.~.G 1 H 1 1 1 1 1   1 1 1     1 1 1 1 1 1 1 1 1 1 1 1   1 1 1 1 1   1 1 1 1 1 1 1 S 1 -.k k k k               ",
"                {.~.].1 H 1 1 1 1               1 1 1 1 1 1 1 1 1 1 1                   1 1 1 1 1 1 S 1 -.k k k k               ",
"                {.~.].1 H 1 1 1                 1 1 1 1 1 1 1 1 1 1                       1 1 1 1 1 S 1 -.k k k k               ",
"                {.~.].1 H 1 1 1 1           1 1 1 1 1 1 1 1 1 1 1 1 1                   1 1 1 1 1 1 S 1 -.k k k k               ",
"                {.~.].1 H 1 1 1 1           1 1 1 1 1 1 1 1 1 1 1 1 1 1                 1 1 1 1 1 1 S 1 -.k k k k               ",
"                {.~.].1 H 1 1 1 1           1 1 1 1 1 1 1 1 1 1 1 1 1 1 1               1 1 1 1 1 1 S 1 -.k k k k               ",
"                {.~.].1 H 1 1 1 1           1 1 1 1 1 1 1 1 1 1 1 1 1 1 1               1 1 1 1 1 1 S 1 -.k k k k               ",
"                {.~.].1 H 1 1 1 1           1 1 1 1 1 1 1 1 1 1 1 1 1 1 1               1 1 1 1 1 1 S 1 -.k k k k               ",
"                {.~.].1 H 1 1 1 1           1 1 1 1 1 1 1 1 1 1 1 1 1 1                 1 1 1 1 1 1 S 1 -.k k k k               ",
"                {.~.].1 H 1 1 1 1           1 1 1 1 1 1 1 1 1 1 1 1 1                   1 1 1 1 1 1 S 1 -.k k k k               ",
"                {.~.].1 H 1 1 1 1           1 1 1 1 1 1 1 1 1 1 1 1                     1 1 1 1 1 1 S 1 -.k k k k               ",
"                {.~.].1 H 1 1 1 1           1 1 1 1 1 1 1 1 1 1 1                       1 1 1 1 1 1 S 1 -.k k k k               ",
"                {.~.].1 H 1 1 1 1             1 1 1 1 1 1 1 1 1                         1 1 1 1 1 1 S 1 -.k k k k               ",
"                {.~.].1 H 1 1 1 1                   1 1 1 1 1 1 1                       1 1 1 1 1 1 S 1 -.k k k k               ",
"                {.~.].1 H 1 1 1 1                     1 1 1 1 1 1                       1 1 1 1 1 1 S 1 -.k k k k               ",
"                {.~.].1 H 1 1 1 1                   1 1 1 1 1 1 1                       1 1 1 1 1 1 S 1 -.k k k k               ",
"                {.~.].1 H 1 1 1 1                   1 1 1 1 1 1 1                       1 1 1 1 1 1 S 1 -.k k k k               ",
"                {.~.].1 H 1 1 1 1                   1 1 1 1 1 1 1                       1 1 1 1 1 1 S 1 -.k k k k               ",
"                {.~.].1 H 1 1 1 1                   1 1 1 1 1 1 1                       1 1 1 1 1 1 S 1 -.k k k k               ",
"                {.~.].1 H 1 1 1 1                   1 1 1 1 1 1 1                       1 1 1 1 1 1 S 1 -.k k k k               ",
"                {.~.].1 H 1 1 1                                                           1 1 1 1 1 S 1 -.k k k k               ",
"                {.~.].1 H 1 1 1 1                                                       1 1 1 1 1 1 S 1 -.k k k k               ",
"                {.~.].1 H 1 1 1 1 1   1 1 1 1 1 1 1               1 1 1 1 1 1 1 1 1   1 1 1 1 1 1 1 S 1 -.k k k k               ",
"                {.~.].1 H 1 1 1 1 1 1 1 1 1 1 1 1 1 1 1 1 1 1 1 1 1 1 1 1 1 1 1 1 1 1 1 1 1 1 1 1 1 S 1 -.k k k k               ",
"                ^./.G 1 H 1 1 1 1 1 1 1 1 1 1 1 1 1 1 1 1 1 1 1 1 1 1 1 1 1 1 1 1 1 1 1 1 1 1 1 1 1  .1 (.k k k k               ",
"                {.~.].1 H 1 1 1 1 1 1 1 1 1 1 1 1 1 1 1 1 1 1 1 1 1 1 1 1 1 1 1 1 1 1 1 1 1 1 1 1 1 S 1 -.k k k k               ",
"                _.:.).H <.1 1 1 1 1 1 1 1 1 1 1 1 1 1 1 1 1 1 1 1 1 1 1 1 1 1 1 1 1 1 1 1 1 1 1 1 1 [.1 }.k k k k               ",
"                |.!.1.1 H 1 1 1 1 1 1 1 1 1 1 1 1 1 1 1 1 1 1 1 1 1 1 1 1 1 1 1 1 1 1 1 1 1 1 1 1 1       k k k k               ",
"                2.3.4.5.6.1 R 1 1 1   1 1 1 1 1 1 1 1 1 1 1 1 1 1 1 1 1 1 1 1 1 1 1 1 1 1 1 1 1 1 1       k 7.k k               ",
"                8.2.9.G 0.1 H 1 1                                                                       k k k k k               ",
"                                                                                                        a.k k k k               ",
"                                                                                                        k k k k k               ",
"                                  b.b.b.b.b.b.b.b.b.b.b.b.b.b.b.b.b.b.b.b.b.b.b.b.b.b.b.b.b.b.b.b.b.      k k k k               ",
"                b.b.b.b.b.b.b.b.b.b.b.b.b.b.b.b.b.b.b.b.b.b.b.b.b.b.b.b.b.b.b.b.b.b.b.b.b.b.b.b.b.b.      k k k k               ",
"                b.b.b.b.b.b.b.b.b.b.b.b.b.b.b.b.b.b.b.b.b.b.b.b.b.b.b.b.b.b.b.b.b.b.b.b.b.b.b.b.b.b.      k k k k               ",
"                b.b.b.b.b.b.b.b.b.b.b.b.b.b.b.b.b.b.b.b.b.b.b.b.b.b.b.b.b.b.b.b.b.b.b.b.b.b.b.b.b.b.      k k k k               "};
