/* XPM */
static char * unlock_picture_xpm[] = {
"32 32 25 1",
" 	c None",
".	c #FF0000",
"+	c #00FF00",
"@	c #1DFE03",
"#	c #49FE09",
"$	c #5EFD0B",
"%	c #B4FC16",
"&	c #FFFC20",
"*	c #F1EE2C",
"=	c #FDFA21",
"-	c #0000FF",
";	c #FF0200",
">	c #FF2C05",
",	c #E5E236",
"'	c #FF1F04",
")	c #FFC318",
"!	c #787696",
"~	c #FF4608",
"{	c #FFF61F",
"]	c #FF5A0B",
"^	c #FF5C0B",
"/	c #FF4809",
"(	c #FF1C03",
"_	c #FFA815",
":	c #FFFF00",
"    .. +++++++++++++++++++++    ",
"    .. +++++++++++++@#$$$$$$    ",
"    ..  ++++++++++%&&&&&&&&&&&  ",
"    ..           &&&&&&&&&&&&&  ",
"    ..           &&&&&&&&&*=&&  ",
"    ..           &&&      -*&&  ",
"    ..           &&&      -*&&  ",
"    ..           &&&      -*&&  ",
"    ..           &&&      -*&&  ",
"    ..           &&&      -*&&  ",
"    ;> &         &&&      -,&&  ",
"    ')&&&&&&&&&&&&&&&&&&&&-!&&  ",
"    ~{&&&&&&&&&&&&&&&&&&&&--    ",
"    ]&&&&&&&&&&&&&&&&&&&&&--    ",
"    ^&&&    &&&&&     &&&&--    ",
"    ^&&&   &&&&&&     &&&&--    ",
"    ^&&&   &&&&&&&    &&&&--    ",
"    ^&&&   &&&&&&&    &&&&--    ",
"    ^&&&   &&&&&&     &&&&--    ",
"    ^&&&   &&&&&      &&&&--    ",
"    ^&&&     &&&      &&&&--    ",
"    ^&&&     &&&      &&&&--    ",
"    ^&&&     &&&      &&&&--    ",
"    ^&&&     &&&      &&&&--    ",
"    ^&&&              &&&&--    ",
"    ^&&&&&&&&&&&&&&&&&&&&&--    ",
"    ^&&&&&&&&&&&&&&&&&&&&&--    ",
"    /&&&&&&&&&&&&&&&&&&&& --    ",
"    (_&&                  --    ",
"                          --    ",
"    ::::::::::::::::::::: --    ",
"    ::::::::::::::::::::: --    "};
