/* XPM */
static char * previous_pictrue_xpm[] = {
"64 64 99 2",
"  	c None",
". 	c #FF0000",
"+ 	c #00FF00",
"@ 	c #00FE01",
"# 	c #FD0200",
"$ 	c #00AA55",
"% 	c #008080",
"& 	c #007C83",
"* 	c #0000FF",
"= 	c #EE291C",
"- 	c #EB3021",
"; 	c #E24832",
"> 	c #D56949",
", 	c #C19B6C",
"' 	c #A3E8A1",
") 	c #D86042",
"! 	c #D36D4B",
"~ 	c #C09C6C",
"{ 	c #AAD493",
"] 	c #A4E59F",
"^ 	c #A2EAA3",
"/ 	c #BDA572",
"( 	c #B0C689",
"_ 	c #A1EBA3",
": 	c #A1EEA5",
"< 	c #ADCD8E",
"[ 	c #ACD090",
"} 	c #A8DB98",
"| 	c #A2E9A2",
"1 	c #A8DA97",
"2 	c #A8DC98",
"3 	c #A5E29D",
"4 	c #A3E9A2",
"5 	c #A9D997",
"6 	c #A6E19C",
"7 	c #A8DA98",
"8 	c #A7DB99",
"9 	c #A5E19D",
"0 	c #A3E9A1",
"a 	c #A6DC99",
"b 	c #A6DD9A",
"c 	c #A4E39E",
"d 	c #374EDF",
"e 	c #ACF59C",
"f 	c #5C83CA",
"g 	c #121AF4",
"h 	c #A7EE9F",
"i 	c #82B9B4",
"j 	c #4968D5",
"k 	c #405CDA",
"l 	c #A5EBA0",
"m 	c #93D1AA",
"n 	c #84BDB2",
"o 	c #80B8B4",
"p 	c #A2E7A1",
"q 	c #A9F09E",
"r 	c #A4EAA0",
"s 	c #9CDEA5",
"t 	c #9DE0A4",
"u 	c #A3E7A1",
"v 	c #A7ED9F",
"w 	c #AAF29D",
"x 	c #AAF19D",
"y 	c #A8EE9E",
"z 	c #A4E69F",
"A 	c #A4E49E",
"B 	c #7BAFB8",
"C 	c #6C9AC0",
"D 	c #7DB3B6",
"E 	c #95D4A9",
"F 	c #9FE2A3",
"G 	c #A4E9A1",
"H 	c #A5E09B",
"I 	c #2637E8",
"J 	c #2F44E3",
"K 	c #4F71D1",
"L 	c #78ABB9",
"M 	c #92D0AA",
"N 	c #A6ECA0",
"O 	c #1018F5",
"P 	c #2230EB",
"Q 	c #3952DE",
"R 	c #6089C7",
"S 	c #A4E6A0",
"T 	c #A1ECA4",
"U 	c #9FF1A7",
"V 	c #9FF3A8",
"W 	c #9FF2A8",
"X 	c #A1EDA4",
"Y 	c #A0F1A7",
"Z 	c #B5BB81",
"` 	c #BEA472",
" .	c #BFA06F",
"..	c #DD553B",
"+.	c #F22117",
"@.	c #F12318",
"#.	c #0202FD",
"$.	c #FFFF00",
"%.	c #FFFD00",
"                . . . .       + + + + + + + + + + + + + + + + + + + + + + + + + + + + + + + + + + + + + + + + + +               ",
"                . . . .       + + + + + + + + + + + + + + + + + + + + + + + + + + + + + + + + + + + + + + + + + +               ",
"                . . . .       + + + + + + + + + + + + + + + + + + + + + + + + + + + + + + + + + + + + + + + + + +               ",
"                . . . .       + + + + + + + + + + + + + + + + + + + + + + + + + + + + + + + + + + + + + + + + + +               ",
"                . . . .       + + + + + + + + + + + + + + + + + + + + + + + + + + + + + + + + + + + @ + + + + + +               ",
"                . . . . .       + + + + + + + + + + + + + + + + + + + + + + + + + + + + + + + + + + + + + + + + +               ",
"                . . . . #         + + + + + + + + + + + + + + + + + + + + + + + + + + + + + + + + +   + $ % & % %               ",
"                . . . . .                                                                               * * * * *               ",
"                . . . . .                                                                                 * * * *               ",
"                . . . . .                                                                               * * * * *               ",
"                . . . . .                                                                               * * * * *               ",
"                . . . . .                                                                               * * * * *               ",
"                . . . . .                                                                               * * * * *               ",
"                . . . . .                                                                               * * * * *               ",
"                . . . .                                                                                 * * * * *               ",
"                . . . . .                                                                               * * * * *               ",
"                = - ; > , '                                                                             * * * * *               ",
"                ) ! ~ { ] ' ^                                                                           * * * * *               ",
"                ~ / ( _ : ' '                                                                           * * * * *               ",
"                < [ } ' | ' '                                                                           * * * * *               ",
"                1 2 3 4 | ' '                                                                           * * * * *               ",
"                5 } 6 ' 4 ' '                                                                           * * * * *               ",
"                1 2 6 ' 4 ' '                                                                           * * * * *               ",
"                5 } 6 ' 4 ' '                                                                           * * * * *               ",
"                7 8 9 ' 0 ' '                                                                             * * * *               ",
"                a b 3 ' 0 ' '                                                                           * * * * *               ",
"                  c ] ' ' ' '                 ' ' ' ' ' ' ' ' ' ' ' ' ' ' ' ' ' ' ' ' ' ' ' ' ' ' '   ' d * * * *               ",
"                ' ' ' ' ' ' '               ' ' ' ' ' ' ' ' ' ' ' ' ' ' ' ' ' ' ' ' ' ' ' ' ' ' ' ' e ' f g * * *               ",
"              ' ' 0 ' ' ' ' '         ' ' ' ' ' ' ' ' ' ' ' ' ' ' ' ' ' ' ' ' ' ' ' ' ' ' ' ' ' ' ' h ' i f j k                 ",
"            ' ' ' ' ' ' ' ' '       ' ' ' ' ' ' ' ' ' ' ' ' ' ' ' ' ' ' ' ' ' ' ' ' ' ' ' ' ' ' ' ' ' ' l ' m n o               ",
"            ' ' ' ' ' ' ' '       ' ' ' ' ' ' ' ' ' ' ' ' ' ' ' ' ' ' ' ' ' ' ' ' ' ' ' ' ' ' ' ' ' p ' q e r s t '   ' ' '     ",
"            ' ' ' ' ' ' ' '       ' ' ' ' ' ' ' ' ' ' ' ' ' ' ' ' ' ' ' ' ' ' ' ' ' ' ' ' ' ' ' ' ' ' ' ' ' ' ' ' ' ' ' ' ' '   ",
"              ' ' ' ' ' ' ' ' ' ' ' ' ' ' ' ' ' ' ' ' ' ' '   ' ' ' ' ' ' ' ' ' ' ' ' ' ' '   ' ' ' u ' v w x y l ' ' ' ' ' ' ' ",
"            ' ' ' ' ' ' ' ' ' ' ' ' ' ' ' ' ' ' ' ' ' ' '                                       ' ' ' ' ' ' ' ' ' ' ' ' ' ' ' ' ",
"          ' ' ' ' ' z A z ' ' ' ' ' ' ' '                                                         ' w ' B C D E F ' G ' ' ' ' ' ",
"        ' ' ' ' ' ' A H A ' ' ' ' ' ' ' '                                                               I J K L M ' N ' ' ' ' ' ",
"        ' ' ' ' ' ' A H A ' ' ' ' ' ' ' '                 ' ' '                                           O P Q R '   ' ' ' ' ' ",
"        ' ' ' ' ' ' ] 3 ] ' ' ' ' ' ' ' ' ' ' ' ' ' ' ' ' ' ' ' '                                       * * * * *               ",
"        ' ' ' ' ' ' S ] S ' ' ' ' ' ' ' ' ' ' ' ' ' ' ' ' ' ' ' ' '                                     * * * *                 ",
"        ' ' ' ' ' ' ' ' ' ' ' ' ' ' ' ' ' ' ' ' ' ' ' ' ' ' ' ' ' ' '                                   * * * * *               ",
"        ' ' u ' T U V W X ' u ' ' ' ' ' ' ' ' ' ' ' ' ' ' ' ' ' ' ' '                                   * * * * *               ",
"        ' ' ' ' ' ' ' ' ' ' ' ' ' ' ' ' ' ' ' ' ' ' ' ' ' ' ' ' ' ' '                                   * * * * *               ",
"          ' Y ' Z `  .` Z '   ' ' ' ' ' ' ' ' ' ' ' ' ' ' ' ' ' ' '                                     * * * * *               ",
"                ..........                                                                              * * * * *               ",
"                  +.@.+.                                                                                * * * * *               ",
"                . . . . .                                                                               * * * * *               ",
"                . . . . .                                                                               * * * * *               ",
"                . . . . .                                                                               * * * * *               ",
"                . . . . .                                                                               * * * * *               ",
"                . . . . .                                                                               * * * * *               ",
"                . . . . .                                                                               * * * * *               ",
"                . . . . .                                                                               * * * * *               ",
"                . . . . .                                                                               * * * * *               ",
"                . . . . .                                                                               * * * * *               ",
"                . . . . .                                                                               * * * * *               ",
"                . . . . .                                                                               * * * * *               ",
"                . . . . .                                                                               * * * * *               ",
"                . . . . .                                                                               * * * * *               ",
"                    .                                                                                   #.* * * *               ",
"                                                                                                        * * * * *               ",
"                          $.%.$.$.$.$.$.$.$.$.$.$.$.$.$.$.$.$.$.$.$.$.$.$.$.$.$.$.$.$.$.$.$.$.$.$.$.      * * * *               ",
"                $.$.$.$.$.$.$.$.$.$.$.$.$.$.$.$.$.$.$.$.$.$.$.$.$.$.$.$.$.$.$.$.$.$.$.$.$.$.$.$.$.$.      * * * *               ",
"                $.$.$.$.$.$.$.$.$.$.$.$.$.$.$.$.$.$.$.$.$.$.$.$.$.$.$.$.$.$.$.$.$.$.$.$.$.$.$.$.$.$.      * * * *               ",
"                $.$.$.$.$.$.$.$.$.$.$.$.$.$.$.$.$.$.$.$.$.$.$.$.$.$.$.$.$.$.$.$.$.$.$.$.$.$.$.$.$.$.      * * * *               "};
