/* XPM */
static char * icon_quit_xpm[] = {
"64 64 8 1",
" 	c None",
".	c #FF0000",
"+	c #00FF00",
"@	c #00AA55",
"#	c #008080",
"$	c #0000FF",
"%	c #000000",
"&	c #FFFF00",
"        ..... +++++++++++++++++++++++++++++++++++++++++++       ",
"        ..... +++++++++++++++++++++++++++++++++++++++++++       ",
"        ..... +++++++++++++++++++++++++++++++++++++++++++       ",
"        ..... +++++++++++++++++++++++++++++++++++++++++++       ",
"        .....  ++++++++++++++++++++++++++++++++++++++++++       ",
"        .....   +++++++++++++++++++++++++++++++++++++++++       ",
"        .....    +++++++++++++++++++++++++++++++++++@####       ",
"        .....                                       $$$$$       ",
"        .....                                       $$$$$       ",
"        .....                                       $$$$$       ",
"        .....                                       $$$$$       ",
"        .....                                       $$$$$       ",
"        .....                                       $$$$$       ",
"        .....                                       $$$$$       ",
"        .....                                       $$$$$       ",
"        .....                                       $$$$$       ",
"        .....                                       $$$$$       ",
"        .....                                       $$$$$       ",
"        .....                                       $$$$$       ",
"        .....                                       $$$$$       ",
"        .....                                       $$$$$       ",
"        .....                                       $$$$$       ",
"        .....                                       $$$$$       ",
"        .....                                       $$$$$       ",
"        .....                                       $$$$$       ",
"        .....                                       $$$$$       ",
"        .....                                       $$$$$       ",
"        .....                                       $$$$$       ",
"        .....                                       $$$$$       ",
"        .....                                       $$$$$       ",
"        .....                   %%%%%%%%%%%%%%%%    $$$$$       ",
"        .....                   %%%%%%%%%%%%%%%%    $$$$$       ",
"        .....                   %%%%%%%%%%%%%%%%    $$$$$       ",
"        .....                            %%%%%%%    $$$$$       ",
"        .....                            %%%%%%%    $$$$$       ",
"        .....                            %%%%%%%    $$$$$       ",
"        .....                                       $$$$$       ",
"        .....                                       $$$$$       ",
"        .....                                       $$$$$       ",
"        .....                                       $$$$$       ",
"        .....                                       $$$$$       ",
"        .....                                       $$$$$       ",
"        .....                                       $$$$$       ",
"        .....                                       $$$$$       ",
"        .....                                       $$$$$       ",
"        .....                                       $$$$$       ",
"        .....                                       $$$$$       ",
"        .....                                       $$$$$       ",
"        .....                                       $$$$$       ",
"        .....                                       $$$$$       ",
"        .....                                       $$$$$       ",
"        .....                                       $$$$$       ",
"        .....                                       $$$$$       ",
"        .....                                       $$$$$       ",
"        .....                                       $$$$$       ",
"        .....                                       $$$$$       ",
"        .....                                       $$$$$       ",
"        .....                                       $$$$$       ",
"         ...                                        $$$$$       ",
"                                                    $$$$$       ",
"         &&&&&&&&&&&&&&&&&&&&&&&&&&&&&&&&&&&&&&&&&  $$$$$       ",
"%%%%%%%%&&&&&&&&&&&&&&&&&&&&&&&&&&&&&&&&&&&&&&&&&&& $$$$$%%%%%%%",
"%%%%%%%%&&&&&&&&&&&&&&&&&&&&&&&&&&&&&&&&&&&&&&&&&&& $$$$$%%%%%%%",
"%%%%%%%%&&&&&&&&&&&&&&&&&&&&&&&&&&&&&&&&&&&&&&&&&&& $$$$$%%%%%%%"};
