/* XPM */
static char * icon_settings_xpm[] = {
"64 64 120 2",
"  	c None",
". 	c #FF0000",
"+ 	c #00FF00",
"@ 	c #03FB03",
"# 	c #22DA22",
"$ 	c #649664",
"% 	c #7D7D7D",
"& 	c #609A60",
"* 	c #15E815",
"= 	c #1DDF1D",
"- 	c #758475",
"; 	c #699069",
"> 	c #03FA03",
", 	c #C20404",
"' 	c #0A780A",
") 	c #02DC02",
"! 	c #51A951",
"~ 	c #19E419",
"{ 	c #780A0A",
"] 	c #121212",
"^ 	c #111911",
"/ 	c #659565",
"( 	c #7C7D7C",
"_ 	c #609B60",
": 	c #0AF40A",
"< 	c #520D0D",
"[ 	c #54A754",
"} 	c #7C7E7C",
"| 	c #35C635",
"1 	c #6F8A6F",
"2 	c #679267",
"3 	c #00AA55",
"4 	c #008080",
"5 	c #930808",
"6 	c #0000FF",
"7 	c #404040",
"8 	c #5B5B5B",
"9 	c #6D6D6D",
"0 	c #131313",
"a 	c #323232",
"b 	c #707070",
"c 	c #4F4F4F",
"d 	c #EB1313",
"e 	c #444444",
"f 	c #A25959",
"g 	c #FA0303",
"h 	c #141414",
"i 	c #7D7C7C",
"j 	c #A15959",
"k 	c #E71717",
"l 	c #E21B1B",
"m 	c #9E5C5C",
"n 	c #5E5E5E",
"o 	c #7E7C7C",
"p 	c #272727",
"q 	c #393939",
"r 	c #4C4C4C",
"s 	c #151515",
"t 	c #171717",
"u 	c #1C1C1C",
"v 	c #494949",
"w 	c #474747",
"x 	c #5A5A5A",
"y 	c #313131",
"z 	c #5D5D5D",
"A 	c #251010",
"B 	c #221010",
"C 	c #300F0F",
"D 	c #231010",
"E 	c #181111",
"F 	c #181818",
"G 	c #555555",
"H 	c #202020",
"I 	c #343434",
"J 	c #4A4A4A",
"K 	c #414141",
"L 	c #383838",
"M 	c #545454",
"N 	c #242424",
"O 	c #1F1F1F",
"P 	c #353535",
"Q 	c #3434C8",
"R 	c #0303FA",
"S 	c #2F2F2F",
"T 	c #696991",
"U 	c #1515E9",
"V 	c #737387",
"W 	c #1111ED",
"X 	c #3E3E3E",
"Y 	c #777782",
"Z 	c #5151AA",
"` 	c #212121",
" .	c #363636",
"..	c #2C2C2C",
"+.	c #191919",
"@.	c #111112",
"#.	c #757585",
"$.	c #0C0C5A",
"%.	c #111118",
"&.	c #0B0B69",
"*.	c #262626",
"=.	c #FFFF00",
"-.	c #939308",
";.	c #171711",
">.	c #151513",
",.	c #7F7F7B",
"'.	c #A2A259",
").	c #D6D626",
"!.	c #F7F707",
"~.	c #70700A",
"{.	c #90906A",
"].	c #DADA23",
"^.	c #E4E402",
"/.	c #39390E",
"(.	c #282828",
"_.	c #959564",
":.	c #B9B905",
"<.	c #1B1B11",
"[.	c #292927",
"}.	c #838377",
"                . . . . .   + + + + + + + + + + + + + + + + + + + + + + + + + + + + + + + + + + + + + + + + + + +               ",
"                . . . . .   + + @ # $ % & * + + + + + + + + + + + + + + + + + + + + + + + + + + + + + + + + + + +               ",
"                . . . . .   + + = - % % % ; > + + + + + + + + + + + + + + + + + + + + + + + + + + + + + + + + + +               ",
"                . . . . ,   ' ) ! % % % % % ~ + + + + + + + + + + + + + + + + + + + + + + + + + + + + + + + + + +               ",
"                . . . . { ] ^ ' / ( % % % % _ : + + + + + + + + + + + + + + + + + + + + + + + + + + + + + + + + +               ",
"                . . . . < ] ] ] [ ( % % % % } | + + + + + + + + + + + + + + + + + + + + + + + + + + + + + + + + +               ",
"                . . . . < ] ] ]   1 % % % % % 2 + + + + + + + + + + + + + + + + + + + + + + + + + + + + 3 4 4 4 4               ",
"                . . . . 5 ] ] ] ]   % % % % % %                                                         6 6 6 6 6               ",
"                . . . . .   ] ] ]   % % % % % %                                                         6 6 6 6 6               ",
"      %         . . . . .   ] ] ] ]   % % % % %                                                         6 6 6 6 6               ",
"  % % % % %     . . . . .   ] ] ] ]   % % % % %                                                         6 6 6 6 6               ",
"  % % % % % %   . . . . .     ] ] ]   % % % % %                                                         6 6 6 6 6               ",
"  % % % % % %   . . . . .     ] ] ]   % % % % %                                                         6 6 6 6 6               ",
"  % % % % % %   . . . . .     ] ] ] 7 % % % % %                                                         6 6 6 6 6               ",
"  % % % % % % % . . . . .     ] ] ] 8 % % % % %                                                         6 6 6 6 6               ",
"    9 % % % % % . . . . .       0 a b % % % % %                                                         6 6 6 6 6               ",
"] ] c % % % % % d . . . .     % % % % % % % %                                                           6 6 6 6 6               ",
"] ] 0 e % % % % f g . . .   % % % % % % % %                                                             6 6 6 6 6               ",
"] ] ] h b % % % i j k l m % % % % % % % % %                                                             6 6 6 6 6               ",
"  ] ] ] n % % % % % o o % % % % % % % % %                                                               6 6 6 6 6               ",
"  ] ] ] p b % % % % % % % % % % % % % % % %                                                             6 6 6 6 6               ",
"    ] ] ] q % % % % % % % % % % % % % % % % %                                                           6 6 6 6 6               ",
"    ] ] ] ] r % % % % % % % % % % % % % % % %                                                           6 6 6 6 6               ",
"      ] ] ] ] 0 s t t t t u v q t w % % % % % %                                                         6 6 6 6 6               ",
"        ] ] ] ] ] ] ] ] ] ] ] ] ] ] x % % % % % %                                                       6 6 6 6 6               ",
"        ] ] ] ] ] ] ] ] ] ] ] ] ] ] h b % % % % %                                                       6 6 6 6 6               ",
"          ] ] ] ] ] ] ] ] ] ] ] ] ] ] y % % % % % %                                                     6 6 6 6 6               ",
"            ] ] ] ] ] ] ] ] ] ] ] ] ] ] z % % % % % %                                                   6 6 6 6 6               ",
"                A B C D E ] ]     ] ] ] F G % % % % %                                                   6 6 6 6 6               ",
"                . . . . .           ] ] ] H % % % % % %                                                 6 6 6 6 6               ",
"                . . . . .           ] ] ] ] I b % % % % %                                               6 6 6 6 6               ",
"                . . . . .             ] ] ] ] I % % % % % %                                             6 6 6 6 6               ",
"                . . . . .             ] ] ] ] ] J % % % % %                                             6 6 6 6 6               ",
"                . . . . .               ] ] ] ] s % % % % % %                                           6 6 6 6 6               ",
"                . . . . .                 ] ] ] ] K % % % % % % %                                       6 6 6 6 6               ",
"                . . . . .                   ] ] ] ] L % % % % % %                                       6 6 6 6 6               ",
"                . . . . .                     ] ] ] ] M % % % % % %                                     6 6 6 6 6               ",
"                . . . . .                     ] ] ] ] N b % % % % % %                                   6 6 6 6 6               ",
"                . . . . .                       ] ] ] ] O z % % % % % %                                 6 6 6 6 6               ",
"                . . . . .                         ] ] ] ] N % % % % % % %                               6 6 6 6 6               ",
"                . . . . .                           ] ] ] ] P % % % % % %                               6 6 6 6 6               ",
"                . . . . .                           ] ] ] ] ] z % % % % % %                             6 6 6 6 6               ",
"                . . . . .                             ] ] ] ] u b % % % % %                             6 6 6 6 6               ",
"                . . . . .                               ] ] ] ] I % % % % % %                           6 6 6 6 6               ",
"                . . . . .                                 ] ] ] ] z % % % % % %       % % % % % % % % % Q R 6 6 6               ",
"                . . . . .                                 ] ] ] ] S % % % % % %   % % % % % % % % % % % % T U 6 6               ",
"                . . . . .                                   ] ] ] ] J % % % % % % % % % % % % % % % % % % % V W 6               ",
"                . . . . .                                     ] ] ] ] X % % % % % % % % % % % % % % % % % % % Y Z               ",
"                . . . . .                                       ] ] ] ] % % % % % % % % G ` t t t u J % % % % % % %             ",
"                . . . . .                                       ] ] ]  .% % % % % % % % ..] ] ] ] ] F % % % % % % % %           ",
"                . . . . .                                             % % % % % % % %   +.] ] ] ] ] ] +.L z % % % % %           ",
"                . . . . .                                           % % % % % % % %           ] ] ] ] ] ] h J % % % % %         ",
"                . . . . .                                           % % % % % % %                 ] ] ] ] ] ] q % % %           ",
"                . . . . .                                           % % % % % %                       ] @.] ] ] #.%             ",
"                . . . . .                                           % % % % %                           $.%.] &.6               ",
"                . . . . .                                         % % % % % %                           6 6 6 6 6               ",
"                . . . . .                                   ] ]     % % % % %                           6 6 6 6 6               ",
"                . . . . .                                   ] ] ] *.% % % % % %                         6 6 6 6 6               ",
"                  . . .                                     ] ] ] ] % % % % % %                         6 6 6 6 6               ",
"                                                            ] ] ] ] e % % % % % %                       6 6 6 6 6               ",
"                  =.=.=.=.=.=.=.=.=.=.=.=.=.=.=.=.=.=.=.=.=.-.;.] ] >.J % % % % % ,.'.).!.=.=.=.=.=.    6 6 6 6 6               ",
"                =.=.=.=.=.=.=.=.=.=.=.=.=.=.=.=.=.=.=.=.=.=.=.~.] ] ] 0 L z % % % % % {.].=.=.=.=.=.=.  6 6 6 6 6               ",
"                =.=.=.=.=.=.=.=.=.=.=.=.=.=.=.=.=.=.=.=.=.=.=.^./.] ] ] ] (.% % % % % % _.=.=.=.=.=.=.  6 6 6 6 6               ",
"                =.=.=.=.=.=.=.=.=.=.=.=.=.=.=.=.=.=.=.=.=.=.=.=.:.<.] ] ] [.% % % % % % }.=.=.=.=.=.=.  6 6 6 6 6               "};
