/* XPM */
static char * lock_picture_xpm[] = {
"64 64 48 1",
" 	c None",
".	c #FF0000",
"+	c #00FF00",
"@	c #01FF00",
"#	c #00FE01",
"$	c #FD0200",
"%	c #02FF00",
"&	c #4DFE0A",
"*	c #80FE10",
"=	c #84FD11",
"-	c #00AA55",
";	c #008080",
">	c #007C83",
",	c #FFFC20",
"'	c #0000FF",
")	c #FFFC23",
"!	c #FFFC22",
"~	c #FF0100",
"{	c #0101FE",
"]	c #FF1B03",
"^	c #FF4308",
"/	c #FF8611",
"(	c #5554B5",
"_	c #FF3F08",
":	c #FF9312",
"<	c #FFD11A",
"[	c #FFFF21",
"}	c #FFFF12",
"|	c #807E90",
"1	c #FF630C",
"2	c #FFD71B",
"3	c #FFF71F",
"4	c #FFFE20",
"5	c #FFFF13",
"6	c #83828C",
"7	c #FF770F",
"8	c #FFFF22",
"9	c #FF1502",
"0	c #FFA415",
"a	c #FF7E10",
"b	c #FF790F",
"c	c #FF8211",
"d	c #84828C",
"e	c #FF4909",
"f	c #FFFF23",
"g	c #FFFF0D",
"h	c #4D4CBC",
"i	c #FFFF00",
"        ....   ++++++++++++++++++++++++++++++++++++++++++       ",
"        ....   ++++++++++++++++++++++++++++++++++++++++++       ",
"        ....   ++++++++++++++++++++++++++++++++++++++++++       ",
"        ....   ++++++++++++++++++++++++++++++++++++++++++       ",
"        ....   +++++++++++@+++++++++++++@+++++++++#++++++       ",
"        .....   +++++++++++++++++++++++++++++++++++++++++       ",
"        ....$    +++++++%+  &*=*****=*&  +%+++++++ +-;>;;       ",
"        .....               ,,,,,,,,,,,             '''''       ",
"        .....               )!!!!!!!!!)              ''''       ",
"        .....             ,,,,,,,,,,,,,,,           '''''       ",
"        .....          ,,,,,,,,,,,,,,,,,,           '''''       ",
"        .....         ,,,,,,,,,,,,,,,,,,,           '''''       ",
"        .....        ,,,,,,,,,,,,,,,,,,,,           '''''       ",
"        .....       ,,,,,,,,,,,,,,,,,,,,,           '''''       ",
"        .....       ,,,,,,,,,, , ,,,,,,,,           '''''       ",
"        .....       ,,,,,,,,,     ,,,,,,,           '''''       ",
"        .....       ,,,,,,,,,      ,,,,,,           '''''       ",
"        .....       ,,,,,,,,,     ,,,,,,,           '''''       ",
"        .....       ,,,,,,,,      ,,,,,,,           '''''       ",
"        .....       ,,,,,,,       ,,,,,,,           '''''       ",
"        .....       ,,,,,,        ,,,,,,,           '''''       ",
"        .....       ,,,,,,,       ,,,,,,,           '''''       ",
"        ~...         ,,,,,         ,,,,,             '{''       ",
"        .....       ,,,,,,,       ,,,,,,,           '''''       ",
"        ..]^/, ,,, ,,,,,,,,, ,,, ,,,,,,,,, ,,,,,,, ,(''''       ",
"        .._:<,[,,,,,,,,,,,,,,,,,,,,,,,,,,,,,,,,,,,},|''''       ",
"        ..123,4,,,,,,,,,,,,,,,,,,,,,,,,,,,,,,,,,,,5,6''''       ",
"        ..7,8,,,,,,,,,,,,,,,,,,,,,,,,,,,,,,,,,,,,,},|''''       ",
"        ..123,4,,,,,,,,,,,,,,,,,,,,,,,,,,,,,,,,,,,},|''''       ",
"        .._:<,[,,,,,,,,,,,,,,,,,,,,,,,,,,,,,,,,,,,},|''''       ",
"        ..9^0,[,,,,, ,,,    ,,,,,,,,,  ,,,,, ,,,,,},|''''       ",
"        ....a,8,,,,         ,,,,,,,,,         ,,,,},|''''       ",
"        ~...b,8,,,          ,,,,,,,,,          ,,,},|''''       ",
"        ....a,8,,,,     ,,,,,,,,,,,,,,,       ,,,,},|''''       ",
"        ....a,8,,,,     ,,,,,,,,,,,,,,,       ,,,,},|''''       ",
"        ....a,8,,,,     ,,,,,,,,,,,,,,,       ,,,,},|''''       ",
"        ....a,8,,,,     ,,,,,,,,,,,,,,,       ,,,,},|''''       ",
"        ....a,8,,,,     ,,,,,,,,,,,,,,,       ,,,,},|''''       ",
"        ....a,8,,,,      ,,,,,,,,,,,,,,       ,,,,},|''''       ",
"        ....a,8,,,,       ,,,,,,,,,,,,,       ,,,,},|''''       ",
"        ....a,8,,,,       ,,,,,,,,,,,,        ,,,,},|''''       ",
"        ....a,8,,,,       ,,,,,,,,,           ,,,,},|''''       ",
"        ....a,8,,,,        ,,,,,,,            ,,,,},|''''       ",
"        ....a,8,,,,         ,,,,,,,           ,,,,},|''''       ",
"        ....a,8,,,,          ,,,,,,           ,,,,},|''''       ",
"        ....a,8,,,,         ,,,,,,,           ,,,,},|''''       ",
"        ....a,8,,,,         ,,,,,,,           ,,,,},|''''       ",
"        ....a,8,,,,         ,,,,,,,           ,,,,},|''''       ",
"        ....a,8,,,                             ,,,},|''''       ",
"        ....a,8,,,,                           ,,,,},|''''       ",
"        ....a,8,,,,, ,,,,,,,       ,,,,,,,,, ,,,,,},|''''       ",
"        ....a,8,,,,,,,,,,,,,,,,,,,,,,,,,,,,,,,,,,,},|''''       ",
"        ....a,8,,,,,,,,,,,,,,,,,,,,,,,,,,,,,,,,,,,},|''''       ",
"        ....a,8,,,,,,,,,,,,,,,,,,,,,,,,,,,,,,,,,,,},|''''       ",
"        ....c,8,,,,,,,,,,,,,,,,,,,,,,,,,,,,,,,,,,,5,d''''       ",
"        ....a,8,,,,,,,,,,,,,,,,,,,,,,,,,,,,,,,,,,,},|''''       ",
"        ....e,f,,,,,,,,,,,,,,,,,,,,,,,,,,,,,,,,,,,g,h''''       ",
"        ....   ,,,,,,,,,,,,,,,,,,,,,,,,,,,,,,,,,,,   ''''       ",
"          .                                          '{''       ",
"                                                    '''''       ",
"             i                                       ''''       ",
"        iiiiiiiiiiiiiiiiiiiiiiiiiiiiiiiiiiiiiiiiii   ''''       ",
"        iiiiiiiiiiiiiiiiiiiiiiiiiiiiiiiiiiiiiiiiii   ''''       ",
"        iiiiiiiiiiiiiiiiiiiiiiiiiiiiiiiiiiiiiiiiii   ''''       "};
