/* XPM */
static char * icon_info_xpm[] = {
"64 64 7 1",
" 	c None",
".	c #FF0000",
"+	c #00FF00",
"@	c #0000FF",
"#	c #D6D6D6",
"$	c #121212",
"%	c #FFFF00",
"        ..... ++++++++++++++++++++++++++++++++++++++++++        ",
"        ..... ++++++++++++++++++++++++++++++++++++++++++        ",
"        ..... ++++++++++++++++++++++++++++++++++++++++++        ",
"        ..... ++++++++++++++++++++++++++++++++++++++++++        ",
"        ..... ++++++++++++++++++++++++++++++++++++++++++        ",
"        .....                                                   ",
"        .....                                      @@@@@        ",
"        .....                                      @@@@@        ",
"        .....                                      @@@@@        ",
"        .....                                      @@@@@        ",
"        .....               #####                  @@@@@        ",
"        .....              #######                 @@@@@        ",
"        .....              #######                 @@@@@        ",
"        .....              #######                 @@@@@        ",
"        .....              #######                 @@@@@        ",
"        .....              #######                 @@@@@        ",
"        .....               #####                  @@@@@        ",
"        .....               $$$$$                  @@@@@        ",
"        .....                                      @@@@@        ",
"        .....                                      @@@@@        ",
"        .....            #########                 @@@@@        ",
"        .....            #########                 @@@@@        ",
"        .....            #########                 @@@@@        ",
"        .....            #########                 @@@@@        ",
"        .....            #########                 @@@@@        ",
"        .....            $$$$#####                 @@@@@        ",
"        .....                #####                 @@@@@        ",
"        .....                #####                 @@@@@        ",
"        .....                #####                 @@@@@        ",
"        .....                #####                 @@@@@        ",
"        .....                #####                 @@@@@        ",
"        .....                #####                 @@@@@        ",
"        .....                #####                 @@@@@        ",
"        .....                #####                 @@@@@        ",
"        .....                #####                 @@@@@        ",
"        .....                #####                 @@@@@        ",
"        .....                #####                 @@@@@        ",
"        .....                #####                 @@@@@        ",
"        .....                #####                 @@@@@        ",
"        .....                #####                 @@@@@        ",
"        .....                #####                 @@@@@        ",
"        .....                #####                 @@@@@        ",
"        .....                #####                 @@@@@        ",
"        .....                #####                 @@@@@        ",
"        .....                #####                 @@@@@        ",
"        .....                #####                 @@@@@        ",
"        .....                #####                 @@@@@        ",
"        .....          #################           @@@@@        ",
"        .....          #################           @@@@@        ",
"        .....          #################           @@@@@        ",
"        .....          #################           @@@@@        ",
"        .....          #################           @@@@@        ",
"        .....          $$$$$$$$$$$$$$$$$           @@@@@        ",
"        .....                                      @@@@@        ",
"        .....                                      @@@@@        ",
"        .....                                      @@@@@        ",
"        .....                                      @@@@@        ",
"        .....                                      @@@@@        ",
"                                                   @@@@@        ",
"        %%%%%%%%%%%%%%%%%%%%%%%%%%%%%%%%%%%%%%%%%% @@@@@        ",
"        %%%%%%%%%%%%%%%%%%%%%%%%%%%%%%%%%%%%%%%%%% @@@@@        ",
"        %%%%%%%%%%%%%%%%%%%%%%%%%%%%%%%%%%%%%%%%%% @@@@@        ",
"        %%%%%%%%%%%%%%%%%%%%%%%%%%%%%%%%%%%%%%%%%% @@@@@        ",
"        %%%%%%%%%%%%%%%%%%%%%%%%%%%%%%%%%%%%%%%%%% @@@@@        "};
