/* XPM */
static char * logo60x80_xpm[] = {
"60 80 5 1",
" 	c None",
".	c #FF0000",
"+	c #00FF00",
"@	c #0000FF",
"#	c #FFFF00",
"......  ++++++++++++++++++++++++++++++++++++++++++++++++++++",
"......  ++++++++++++++++++++++++++++++++++++++++++++++++++++",
"......  ++++++++++++++++++++++++++++++++++++++++++++++++++++",
"......  ++++++++++++++++++++++++++++++++++++++++++++++++++++",
"......  ++++++++++++++++++++++++++++++++++++++++++++++++++++",
"......  ++++++++++++++++++++++++++++++++++++++++++++++++++++",
"......                                                      ",
"......                                                      ",
"......                                                @@@@@@",
"......                                                @@@@@@",
"......                                                @@@@@@",
"......                                                @@@@@@",
"......                                                @@@@@@",
"......                                                @@@@@@",
"......                                                @@@@@@",
"......                                                @@@@@@",
"......                                                @@@@@@",
"......                                                @@@@@@",
"......                                                @@@@@@",
"......                                                @@@@@@",
"......                                                @@@@@@",
"......                                                @@@@@@",
"......                                                @@@@@@",
"......                                                @@@@@@",
"......                                                @@@@@@",
"......                                                @@@@@@",
"......                                                @@@@@@",
"......                                                @@@@@@",
"......                                                @@@@@@",
"......                                                @@@@@@",
"......                                                @@@@@@",
"......                                                @@@@@@",
"......                                                @@@@@@",
"......                                                @@@@@@",
"......                                                @@@@@@",
"......                                                @@@@@@",
"......                                                @@@@@@",
"......                                                @@@@@@",
"......                                                @@@@@@",
"......                                                @@@@@@",
"......                                                @@@@@@",
"......                                                @@@@@@",
"......                                                @@@@@@",
"......                                                @@@@@@",
"......                                                @@@@@@",
"......                                                @@@@@@",
"......                                                @@@@@@",
"......                                                @@@@@@",
"......                                                @@@@@@",
"......                                                @@@@@@",
"......                                                @@@@@@",
"......                                                @@@@@@",
"......                                                @@@@@@",
"......                                                @@@@@@",
"......                                                @@@@@@",
"......                                                @@@@@@",
"......                                                @@@@@@",
"......                                                @@@@@@",
"......                                                @@@@@@",
"......                                                @@@@@@",
"......                                                @@@@@@",
"......                                                @@@@@@",
"......                                                @@@@@@",
"......                                                @@@@@@",
"......                                                @@@@@@",
"......                                                @@@@@@",
"......                                                @@@@@@",
"......                                                @@@@@@",
"......                                                @@@@@@",
"......                                                @@@@@@",
"......                                                @@@@@@",
"......                                                @@@@@@",
"                                                      @@@@@@",
"                                                      @@@@@@",
"####################################################  @@@@@@",
"####################################################  @@@@@@",
"####################################################  @@@@@@",
"####################################################  @@@@@@",
"####################################################  @@@@@@",
"####################################################  @@@@@@"};
