/* XPM */
static char * next_pictrue_xpm[] = {
"64 64 127 2",
"  	c None",
". 	c #FF0000",
"+ 	c #00FF00",
"@ 	c #00FE01",
"# 	c #FD0200",
"$ 	c #00AA55",
"% 	c #008080",
"& 	c #007C83",
"* 	c #0000FF",
"= 	c #A3E8A1",
"- 	c #0101FE",
"; 	c #121AF4",
"> 	c #090DFA",
", 	c #A9F19D",
"' 	c #71A1BD",
") 	c #557ACD",
"! 	c #3850DE",
"~ 	c #2130EB",
"{ 	c #1B26EF",
"] 	c #A4E9A1",
"^ 	c #A2E7A1",
"/ 	c #98D8A7",
"( 	c #6F9EBE",
"_ 	c #4C6DD2",
": 	c #4260D7",
"< 	c #A7EE9F",
"[ 	c #A6EC9F",
"} 	c #8ECAAD",
"| 	c #78ACB9",
"1 	c #73A4BC",
"2 	c #9FE2A3",
"3 	c #9BDDA5",
"4 	c #9ADCA6",
"5 	c #A3E9A1",
"6 	c #A3E7A1",
"7 	c #9DE0A4",
"8 	c #97D6A8",
"9 	c #FE0201",
"0 	c #A6ECA0",
"a 	c #8FCBAD",
"b 	c #7CB0B7",
"c 	c #77A9BA",
"d 	c #A8EF9E",
"e 	c #7AAEB8",
"f 	c #567ACD",
"g 	c #4C6CD2",
"h 	c #FF0101",
"i 	c #AAF39D",
"j 	c #618AC7",
"k 	c #2737E8",
"l 	c #1721F1",
"m 	c #ABF39C",
"n 	c #4B6AD4",
"o 	c #FF0100",
"p 	c #E5422E",
"q 	c #9BFCAF",
"r 	c #A7EE9E",
"s 	c #97D7A7",
"t 	c #4460D8",
"u 	c #D17450",
"v 	c #9DF6AB",
"w 	c #A5EAA0",
"x 	c #87C0B0",
"y 	c #3E58DB",
"z 	c #F51911",
"A 	c #CA865D",
"B 	c #9EF4AA",
"C 	c #A7ED9F",
"D 	c #8AC5AE",
"E 	c #648EC4",
"F 	c #2B3DE6",
"G 	c #F6160F",
"H 	c #E4432E",
"I 	c #C29A6A",
"J 	c #9FF2A8",
"K 	c #3C56DB",
"L 	c #1620F1",
"M 	c #EA3525",
"N 	c #C9865D",
"O 	c #B2C085",
"P 	c #A1EEA5",
"Q 	c #4969D4",
"R 	c #1924F0",
"S 	c #080CFA",
"T 	c #DB5B3F",
"U 	c #B0C589",
"V 	c #A5E39E",
"W 	c #A2EAA2",
"X 	c #E63D2B",
"Y 	c #C8895F",
"Z 	c #A6DF9B",
"` 	c #A1EDA5",
" .	c #0001FF",
"..	c #CE7B56",
"+.	c #C9875E",
"@.	c #B7B57E",
"#.	c #AECB8D",
"$.	c #B3C085",
"%.	c #ABD393",
"&.	c #A2ECA4",
"*.	c #A2EBA3",
"=.	c #A1ECA4",
"-.	c #A3E9A2",
";.	c #A4E69F",
">.	c #A5E29D",
",.	c #A5E49E",
"'.	c #A2E9A2",
").	c #A8DB98",
"!.	c #ACD090",
"~.	c #ADCD8E",
"{.	c #A1EBA3",
"].	c #B0C689",
"^.	c #BDA471",
"/.	c #A2EAA3",
"(.	c #A4E59F",
"_.	c #AAD493",
":.	c #C09C6C",
"<.	c #D36D4B",
"[.	c #D86042",
"}.	c #C19B6C",
"|.	c #D56949",
"1.	c #E24832",
"2.	c #EB3021",
"3.	c #EE291C",
"4.	c #0202FD",
"5.	c #FFFF00",
"6.	c #FFFD00",
"                . . . .       + + + + + + + + + + + + + + + + + + + + + + + + + + + + + + + + + + + + + + + + + +               ",
"                . . . .       + + + + + + + + + + + + + + + + + + + + + + + + + + + + + + + + + + + + + + + + + +               ",
"                . . . .       + + + + + + + + + + + + + + + + + + + + + + + + + + + + + + + + + + + + + + + + + +               ",
"                . . . .       + + + + + + + + + + + + + + + + + + + + + + + + + + + + + + + + + + + + + + + + + +               ",
"                . . . .       + + + + + + + + + + + + + + + + + + + + + + + + + + + + + + + + + + + @ + + + + + +               ",
"                . . . . .       + + + + + + + + + + + + + + + + + + + + + + + + + + + + + + + + + + + + + + + + +               ",
"                . . . . #         + + + + + + + + + + + + + + + + + + + + + + + + + + + + + + + + +   + $ % & % %               ",
"                . . . . .                                                                               * * * * *               ",
"                . . . . .                                                                                 * * * *               ",
"                . . . . .                                                                               * * * * *               ",
"                . . . . .                                                                               * * * * *               ",
"                . . . . .                                                                               * * * * *               ",
"                . . . . .                                                                               * * * * *               ",
"                . . . . .                                                                               * * * * *               ",
"                . . . . .                                     = = = = =                                 * * * * *               ",
"                . . . . .                                   = = = = = = =                               * * * * *               ",
"                . . . . .                                 = = = = = = = = = = =                         * * * * *               ",
"                . . . . .                               = = = = = = = = = = = = =                       * * * * *               ",
"                . . . . .                               = = = = = = = = = = = = = =   = = = = = = =       - * * *               ",
"                . . . . .                               = = = = = = = = = = = = = = = = = = = = = =       ; > * *               ",
"                . . . . .                                 = = = = = = = = = = = = = = = = = = = = = , = ' ) ! ~ {               ",
"                . . . . .                                   = = = = = = = = = = = = = = = = = = = = ] = ^ / ( _ :               ",
"                . . . . .                                     = = = = =   = = = = = = = = = = = = = = = < [ } | 1               ",
"                . . . . .                                                   = = = = = = = = = = = = = = ] = 2 3 4               ",
"                . . . . .                                                                   = = = = = = 5 ] = 6 ^               ",
"                . . . . .                                                                   = = = = = = ] = 7 / 8               ",
"                . . . . 9                 = = = = = = = = = = = = = = = = =                 = = = = = = 0 = a b c               ",
"                . . . . .               = = = = = = = = = = = = = = = = = = = = = = = = = = = = = = = = d = e f g               ",
"                . . h .       = = =   = = = = = = = = = = = = = = = = = = = = = = = = = = = = = = = = = i ^ j k l               ",
"                . . . .       = = = = = = = = = = = = = = = = = = = = = = = = = = = = = = = = = = = = = m 2 n * *               ",
"                o . . . p = q = = = = = = = = = = = = = = = = = = = = = = = = = = = = = = = = = = = ] = r s t * *               ",
"                . . . . u = v = = = = = = = = = = = = = = = = = = = = = = = = = = = = = = = = = = = w = 7 x y * *               ",
"                . . . z A = B = = = = = = = = = = =   = = = = = = =     = = = = = = = = = = = = = = C = D E F * *               ",
"                . . G H I = J = = = = = = = = = =                       = = = = = = = = = = = = = = , = 1 K L * *               ",
"                . . M N O = P = = = = = = = = =                         = = = = = = = = = =   = = =   = Q R S * *               ",
"                . . T U V = W = = = = = =                           = = = = = = = = = = =               * * * * *               ",
"                  X Y Z ` = 5 = = = = =                           = = = = = = = = = = =                   * * *  .              ",
"                ..+.@.= P = = = = = =                           = = = = = = = = = = =                   * * * * *               ",
"              = #.$.%.W &.= = = = =                             = = = = = = = = = =                     * * * * *               ",
"            = = = = = = = = = = =                               = = = = = = = = =                       * * * * *               ",
"            6 = *.P =.W = = = =                                 = = = = = = = =                         * * * * *               ",
"            = = = = = = = = =                                   = = = = = = =                           * * * * *               ",
"            = = -.-.;.>.,.=                                     = = = = = = =                           * * * * *               ",
"            = = '.= ).!.~.                                      = = = = = = =                           * * * * *               ",
"            = = P {.].^.                                        = = = = = =                             * * * * *               ",
"            /.= (._.:.<.[.                                      = = = = =                               * * * * *               ",
"              = }.|.1.2.3.                                        = = =                                 * * * * *               ",
"                . . . . .                                                                               * * * * *               ",
"                  . . . .                                                                               * * * * *               ",
"                . . . . .                                                                               * * * * *               ",
"                . . . . .                                                                               * * * * *               ",
"                . . . . .                                                                               * * * * *               ",
"                . . . . .                                                                               * * * * *               ",
"                . . . . .                                                                               * * * * *               ",
"                . . . . .                                                                               * * * * *               ",
"                . . . . .                                                                               * * * * *               ",
"                . . . . .                                                                               * * * * *               ",
"                . . . . .                                                                               * * * * *               ",
"                    .                                                                                   4.* * * *               ",
"                                                                                                        * * * * *               ",
"                          5.6.5.5.5.5.5.5.5.5.5.5.5.5.5.5.5.5.5.5.5.5.5.5.5.5.5.5.5.5.5.5.5.5.5.5.5.      * * * *               ",
"                5.5.5.5.5.5.5.5.5.5.5.5.5.5.5.5.5.5.5.5.5.5.5.5.5.5.5.5.5.5.5.5.5.5.5.5.5.5.5.5.5.5.      * * * *               ",
"                5.5.5.5.5.5.5.5.5.5.5.5.5.5.5.5.5.5.5.5.5.5.5.5.5.5.5.5.5.5.5.5.5.5.5.5.5.5.5.5.5.5.      * * * *               ",
"                5.5.5.5.5.5.5.5.5.5.5.5.5.5.5.5.5.5.5.5.5.5.5.5.5.5.5.5.5.5.5.5.5.5.5.5.5.5.5.5.5.5.      * * * *               "};
