/* XPM */
static char * previous_pictrue_xpm[] = {
"32 32 18 1",
" 	c None",
".	c #FF0000",
"+	c #00FF00",
"@	c #0000FF",
"#	c #D36D4B",
"$	c #AAD493",
"%	c #A3E8A1",
"&	c #ACD090",
"*	c #A8DB98",
"=	c #A6DD9A",
"-	c #121AF4",
";	c #84BDB2",
">	c #A5E09B",
",	c #2F44E3",
"'	c #78ABB9",
")	c #A5E29D",
"!	c #DD553B",
"~	c #FFFF00",
"    .. +++++++++++++++++++++    ",
"    .. +++++++++++++++++++++    ",
"    ..  ++++++++++++++++++++    ",
"    ..                    @@    ",
"    ..                    @@    ",
"    ..                    @@    ",
"    ..                    @@    ",
"    ..                    @@    ",
"    #$%                   @@    ",
"    &%%                   @@    ",
"    *%%                   @@    ",
"    *%%                   @@    ",
"    =%%                   @@    ",
"    %%%    %%%%%%%%%%%%%%%-@    ",
"   %%%%  %%%%%%%%%%%%%%%%%%;    ",
"   %%%% %%%%%%%%%%%%%%%%%%%%%%% ",
"   %%%%%%%%%%%          %%%%%%%%",
"  %%%>%%%%                ,'%%%%",
"  %%%)%%%%%%%%%%          @@    ",
"  %%%%%%%%%%%%%%%         @@    ",
"  %%%%%%%%%%%%%%%         @@    ",
"    !!                    @@    ",
"    ..                    @@    ",
"    ..                    @@    ",
"    ..                    @@    ",
"    ..                    @@    ",
"    ..                    @@    ",
"    ..                    @@    ",
"    ..                    @@    ",
"                          @@    ",
"    ~~~~~~~~~~~~~~~~~~~~~ @@    ",
"    ~~~~~~~~~~~~~~~~~~~~~ @@    "};
