/* XPM */
static char * lock_picture_xpm[] = {
"32 32 7 1",
" 	c None",
".	c #FF0000",
"+	c #00FF00",
"@	c #FFFC20",
"#	c #0000FF",
"$	c #FF9312",
"%	c #FFFF00",
"    .. +++++++++++++++++++++    ",
"    .. +++++++++++++++++++++    ",
"    ..  ++++++++++++++++++++    ",
"    ..        @@@@@       ##    ",
"    ..       @@@@@@@      ##    ",
"    ..     @@@@@@@@@      ##    ",
"    ..    @@@@@@@@@@      ##    ",
"    ..    @@@@   @@@      ##    ",
"    ..    @@@@   @@@      ##    ",
"    ..    @@@    @@@      ##    ",
"    ..    @@@    @@@      ##    ",
"    ..    @@@    @@@      ##    ",
"    .$@@@@@@@@@@@@@@@@@@@@##    ",
"    .@@@@@@@@@@@@@@@@@@@@@##    ",
"    .$@@@@@@@@@@@@@@@@@@@@##    ",
"    ..@@@     @@@@     @@@##    ",
"    ..@@@   @@@@@@@    @@@##    ",
"    ..@@@   @@@@@@@    @@@##    ",
"    ..@@@   @@@@@@@    @@@##    ",
"    ..@@@    @@@@@@    @@@##    ",
"    ..@@@    @@@@      @@@##    ",
"    ..@@@     @@@      @@@##    ",
"    ..@@@     @@@      @@@##    ",
"    ..@@@     @@@      @@@##    ",
"    ..@@@              @@@##    ",
"    ..@@@@@@@@@@@@@@@@@@@@##    ",
"    ..@@@@@@@@@@@@@@@@@@@@##    ",
"    ..@@@@@@@@@@@@@@@@@@@@##    ",
"    .. @@@@@@@@@@@@@@@@@@ ##    ",
"                          ##    ",
"    %%%%%%%%%%%%%%%%%%%%% ##    ",
"    %%%%%%%%%%%%%%%%%%%%% ##    "};
