/* XPM */
static char * logo32x32_xpm[] = {
"32 32 5 1",
" 	c None",
".	c #FF0000",
"+	c #00FF00",
"@	c #0000FF",
"#	c #FFFF00",
"    .. +++++++++++++++++++++    ",
"    .. +++++++++++++++++++++    ",
"    ..  ++++++++++++++++++++    ",
"    ..                    @@    ",
"    ..                    @@    ",
"    ..                    @@    ",
"    ..                    @@    ",
"    ..                    @@    ",
"    ..                    @@    ",
"    ..                    @@    ",
"    ..                    @@    ",
"    ..                    @@    ",
"    ..                    @@    ",
"    ..                    @@    ",
"    ..                    @@    ",
"    ..                    @@    ",
"    ..                    @@    ",
"    ..                    @@    ",
"    ..                    @@    ",
"    ..                    @@    ",
"    ..                    @@    ",
"    ..                    @@    ",
"    ..                    @@    ",
"    ..                    @@    ",
"    ..                    @@    ",
"    ..                    @@    ",
"    ..                    @@    ",
"    ..                    @@    ",
"    ..                    @@    ",
"                          @@    ",
"    ##################### @@    ",
"    ##################### @@    "};
