/* XPM */
static char * next_pictrue_xpm[] = {
"32 32 20 1",
" 	c None",
".	c #FF0000",
"+	c #00FF00",
"@	c #0000FF",
"#	c #A3E8A1",
"$	c #121AF4",
"%	c #98D8A7",
"&	c #4C6DD2",
"*	c #9BDDA5",
"=	c #567ACD",
"-	c #9FE2A3",
";	c #87C0B0",
">	c #E4432E",
",	c #3C56DB",
"'	c #B0C589",
")	c #C9875E",
"!	c #ACD090",
"~	c #AAD493",
"{	c #D36D4B",
"]	c #FFFF00",
"    .. +++++++++++++++++++++    ",
"    .. +++++++++++++++++++++    ",
"    ..  ++++++++++++++++++++    ",
"    ..                    @@    ",
"    ..                    @@    ",
"    ..                    @@    ",
"    ..                    @@    ",
"    ..         ###        @@    ",
"    ..        ######      @@    ",
"    ..        ########### $@    ",
"    ..         ###########%&    ",
"    ..             ########*    ",
"    ..                 ####%    ",
"    ..    #################=    ",
"    .. ###################-@    ",
"    ..####################;@    ",
"    .>######      ########,@    ",
"    .'####       #####    @@    ",
"    )####       #####     @@    ",
"   #####        ####      @@    ",
"   ####         ###       @@    ",
"   ##!          ###       @@    ",
"   #~{          ##        @@    ",
"    ..                    @@    ",
"    ..                    @@    ",
"    ..                    @@    ",
"    ..                    @@    ",
"    ..                    @@    ",
"    ..                    @@    ",
"                          @@    ",
"    ]]]]]]]]]]]]]]]]]]]]] @@    ",
"    ]]]]]]]]]]]]]]]]]]]]] @@    "};
