/* XPM */
static char * logo16x16[] = {
"16 16 9 1",
" 	c None",
".	c #FF0000",
"+	c #4EB100",
"@	c #00FF00",
"#	c #00629D",
"$	c #0000FF",
"%	c #FF4E00",
"&	c #FFFF00",
"*	c #B1B14E",
"  .+@@@@@@@@@@  ",
"  .          #  ",
"  .          $  ",
"  .          $  ",
"  .          $  ",
"  .          $  ",
"  .          $  ",
"  .          $  ",
"  .          $  ",
"  .          $  ",
"  .          $  ",
"  .          $  ",
"  .          $  ",
"  .          $  ",
"  %          $  ",
"  &&&&&&&&&&*$  "};
